<?xml version="1.0" encoding="utf-8"?>
<!-- Generator: Adobe Illustrator 23.0.0, SVG Export Plug-In . SVG Version: 6.00 Build 0)  -->
<svg version="1.1" id="Capa_1" xmlns="http://www.w3.org/2000/svg" xmlns:xlink="http://www.w3.org/1999/xlink" x="0px" y="0px"
	 viewBox="0 0 80 80" style="enable-background:new 0 0 80 80;" xml:space="preserve">
<style type="text/css">
	.st0{fill:#4DA881;}
	.st1{fill:url(#SVGID_1_);}
	.st2{fill:url(#SVGID_2_);}
	.st3{fill:#F8C44C;}
	.st4{fill:url(#SVGID_3_);}
	.st5{fill:url(#SVGID_4_);}
</style>
<path class="st0" d="M34.57,15.57c0.06,0.05-3.28,2.76-5.01,7.68c-1.65,4.71-0.93,8.89-0.67,10.18c0.66,3.24,2,5.47,2.34,6.01
	c3.87,6.24,10.83,7.97,12.67,8.37c0.94,0.02,1.88,0.05,2.82,0.06c8.36,0.15,16.53,0.03,24.5-0.33c0.22-0.03,0.54-0.05,0.92,0
	c1.26,0.15,2.93,1,3.55,2.8c0.53,1.53,0.12,3.24-1.04,4.38c-0.09,0.02-0.23,0.04-0.38-0.02c-0.34-0.14-0.33-0.59-0.56-0.88
	c-0.09-0.11-0.39-0.42-1.47-0.31c-2.39,0.23-4.73,1.69-4.73,1.69c-1.16,0.7-2.75,1.82-4.41,3.51c-7.16,0-14.31,0-21.47,0
	c-0.13,0-0.32,0-0.55,0c-8.2-0.16-13.98-7.64-14.5-8.33c-5.56-7.39-4.04-15.95-3.76-17.4l0.06-0.24c-0.01,0.29-0.01,0.68,0,1.14
	c0,0.05,0.02,0.69,0.08,1.42c0.08,0.88,0.31,2.91,0.55,4.05c0,0,0.87,4.07,3.27,7.71c0.47,0.71,0.96,1.31,0.96,1.31
	c0.2,0.25,0.76,0.92,1.59,1.69c0.34,0.32,1.25,1.14,2.59,2c0.62,0.4,2.74,1.71,5.88,2.57c2.16,0.59,3.76,0.67,4.92,0.73
	c0,0,1.26,0.07,3.51-0.42c0.35-0.08,0.92-0.21,0.92-0.41c0-0.09-0.1-0.16-0.19-0.21c-0.15-0.04-0.3-0.08-0.45-0.13
	c-0.93,0.11-2.23,0.19-3.76,0.03c-3.23-0.33-5.52-1.5-6.71-2.12c-5.3-2.77-7.98-7.11-8.41-7.83c-0.82-1.37-3.25-5.79-2.9-11.84
	c0.19-3.38,1.18-6.01,1.92-7.59c-0.12,0.44-0.29,1.06-0.46,1.81c-0.12,0.51-0.41,1.79-0.56,2.93c-0.27,2.07-0.08,3.77,0.02,4.58
	c0.41,3.42,1.64,5.9,2.04,6.68c0.54,1.03,2.27,4.11,5.76,6.66c0.5,0.36,1.65,1.16,3.26,1.92c1.2,0.56,3.55,1.51,6.66,1.81
	c1.15,0.11,4.46,0.01,4.76-0.16c0.08-0.04,0.61-0.34,0.56-0.54c-0.04-0.15-0.51-0.18-0.68-0.18c-1.31-0.05-2.79-0.07-3.38-0.09
	c-0.52-0.03-0.92-0.1-1.72-0.25c-1.11-0.21-4.29-0.99-7.32-3c-5.69-3.77-7.71-9.74-7.79-10.02c-1.92-5.95-0.16-10.96,0.44-12.58
	C30.34,18.61,34.5,15.52,34.57,15.57z"/>
<linearGradient id="SVGID_1_" gradientUnits="userSpaceOnUse" x1="67.5421" y1="31.3636" x2="54.252" y2="31.3636">
	<stop  offset="0" style="stop-color:#F8C44C"/>
	<stop  offset="0.1599" style="stop-color:#98A976"/>
	<stop  offset="0.5076" style="stop-color:#709A77"/>
</linearGradient>
<path class="st1" d="M60.54,15.89c-0.12,0.1,3.52,3.24,5.07,8.54c0.47,1.59,1.47,5.85-0.06,10.67c-2.56,8.03-10.13,11.21-11.3,11.67
	c0.95-0.04,3.92,0.19,4.57-0.03c0.37-0.13,0.59-0.29,1.56-1.1c1.17-0.97,1.76-1.46,1.97-1.66c2.47-2.35,3.88-5.76,3.88-5.76
	c1.41-3.4,1.33-6.33,1.28-7.67c-0.03-0.79-0.2-4.07-1.97-7.89C63.56,18.4,60.65,15.8,60.54,15.89z"/>
<linearGradient id="SVGID_2_" gradientUnits="userSpaceOnUse" x1="69.7542" y1="35.4184" x2="62.1702" y2="35.4184">
	<stop  offset="0" style="stop-color:#F8C44C"/>
	<stop  offset="0.1599" style="stop-color:#98A976"/>
	<stop  offset="0.5076" style="stop-color:#709A77"/>
</linearGradient>
<path class="st2" d="M67.55,23.9c-0.09,0.03,0.95,2.29,1.38,5.38c0.22,1.55,0.68,5.19-0.81,9.36c-1.57,4.38-4.46,7.02-5.95,8.2
	c0.53,0,0.97,0.02,1.25,0.03c0.74,0.04,1.1,0.16,1.5-0.06c0.26-0.14,0.4-0.33,0.48-0.44c2.66-3.71,3.49-6.54,3.49-6.54
	c0.19-0.65,0.31-1.16,0.37-1.44c0.27-1.26,0.36-2.28,0.41-3c0.25-3.2-0.21-5.65-0.34-6.32C68.74,26.11,67.65,23.87,67.55,23.9z"/>
<path class="st3" d="M4.1,50.04c0.09-0.16,2.38,1.39,6.22,2.34c2.31,0.57,4.42,0.73,5.69,0.83c0.98,0.08,2.25,0.15,3.94,0.13
	c0.7-0.01,2.33-0.11,3.71-0.18c0.89-0.05,1.57-0.44,2.23-0.06c0.23,0.13,0.26,0.23,1.01,1.06c0.87,0.96,1.03,1.05,0.99,1.19
	c-0.1,0.34-1.18,0.31-3.59,0.13c-2.49-0.19-4.33-0.39-4.55-0.42c-3.35-0.37-4.21-0.51-4.67-0.58c-1.2-0.2-2.08-0.35-3.25-0.67
	c-1.83-0.5-3.15-1.07-3.53-1.24C5.99,51.54,4.02,50.19,4.1,50.04z"/>
<path class="st3" d="M29.85,56.93c-2.64,0.27-6.55,0.45-11.23-0.13c-5.67-0.7-9.66-2.19-9.72-2c-0.06,0.21,4.56,2.25,10.31,3.38
	c5.39,1.06,10.02,0.96,13.23,0.67L29.85,56.93z"/>
<path class="st3" d="M29.73,62.06c-4-0.09-6.43-0.46-8.12-0.79c-2.2-0.44-3.69-0.92-4.28-1.13c-2.27-0.78-4.22-1.75-4.2-1.79
	c0.01-0.01,0.22,0.08,0.73,0.24c0.61,0.19,1.11,0.31,2.09,0.54c0.37,0.09,0.86,0.2,1.52,0.34c0.13,0.03,0.89,0.18,1.7,0.33
	c1.69,0.3,3.12,0.46,4.38,0.59c1.01,0.11,1.7,0.18,2.62,0.25c3.73,0.27,7.93,0.12,8.85-0.04c0.23-0.04,0.7-0.14,1.33-0.08
	c0.35,0.03,0.4,0.08,1.99,0.5c0.52,0.14,1.92,0.36,1.92,0.42C40.24,61.7,35.27,62.19,29.73,62.06z"/>
<linearGradient id="SVGID_3_" gradientUnits="userSpaceOnUse" x1="71.7942" y1="34.2425" x2="71.7942" y2="34.2425">
	<stop  offset="0" style="stop-color:#F8C44C"/>
	<stop  offset="0.1599" style="stop-color:#98A976"/>
	<stop  offset="0.5076" style="stop-color:#709A77"/>
</linearGradient>
<path class="st4" d="M71.79,34.24"/>
<linearGradient id="SVGID_4_" gradientUnits="userSpaceOnUse" x1="72.1028" y1="40.6088" x2="68.2636" y2="40.6088">
	<stop  offset="0" style="stop-color:#F8C44C"/>
	<stop  offset="0.1599" style="stop-color:#98A976"/>
	<stop  offset="0.5076" style="stop-color:#709A77"/>
</linearGradient>
<path class="st5" d="M68.29,46.92c-0.27-0.26,1.63-1.96,2.44-4.58c0.2-0.64,0.43-1.66,0.48-1.87c0.02-0.09,0.28-1.2,0.42-2.12
	c0.38-2.32,0.18-4.08,0.22-4.08c0.05,0,0.41,2.47,0.16,5.7c-0.37,4.68-1.71,6.98-2.32,6.95c-0.09,0-0.34-0.07-0.75-0.05
	C68.46,46.89,68.35,46.99,68.29,46.92z"/>
</svg>
