<?xml version="1.0" encoding="utf-8"?>
<!-- Generator: Adobe Illustrator 23.0.0, SVG Export Plug-In . SVG Version: 6.00 Build 0)  -->
<svg version="1.1" id="Capa_1" xmlns="http://www.w3.org/2000/svg" xmlns:xlink="http://www.w3.org/1999/xlink" x="0px" y="0px"
	 viewBox="0 0 510 510" style="enable-background:new 0 0 510 510;" xml:space="preserve">
<style type="text/css">
	.st0{fill:#4DA881;}
	.st1{fill:url(#SVGID_1_);}
	.st2{fill:url(#SVGID_2_);}
	.st3{fill:#F8C44C;}
	.st4{fill:url(#SVGID_3_);}
	.st5{fill:url(#SVGID_4_);}
</style>
<path class="st0" d="M246.26,218.8c0.09,0.07-5.13,4.31-7.83,12c-2.58,7.35-1.46,13.89-1.04,15.91c1.04,5.07,3.13,8.54,3.65,9.39
	c6.05,9.76,16.93,12.46,19.79,13.08c1.46,0.04,2.93,0.07,4.4,0.1c13.07,0.24,25.83,0.05,38.28-0.52c0.35-0.04,0.85-0.07,1.43,0
	c1.96,0.24,4.57,1.57,5.54,4.37c0.83,2.39,0.19,5.07-1.63,6.85c-0.14,0.03-0.36,0.06-0.59-0.03c-0.53-0.22-0.52-0.92-0.88-1.37
	c-0.14-0.18-0.62-0.65-2.3-0.49c-3.74,0.36-7.39,2.64-7.39,2.64c-1.81,1.1-4.3,2.84-6.9,5.48c-11.18,0-22.37,0-33.55,0
	c-0.2,0-0.5,0.01-0.86,0c-12.81-0.26-21.85-11.93-22.66-13.01c-8.68-11.54-6.31-24.93-5.87-27.2l0.1-0.38
	c-0.01,0.45-0.02,1.06,0,1.78c0,0.07,0.03,1.08,0.13,2.22c0.12,1.38,0.49,4.55,0.86,6.33c0,0,1.35,6.37,5.11,12.06
	c0.73,1.1,1.5,2.05,1.5,2.05c0.32,0.39,1.18,1.43,2.48,2.64c0.53,0.49,1.96,1.79,4.04,3.13c0.97,0.62,4.28,2.68,9.2,4.01
	c3.38,0.92,5.88,1.05,7.7,1.14c0,0,1.97,0.1,5.48-0.65c0.55-0.12,1.43-0.33,1.44-0.65c0-0.14-0.16-0.25-0.3-0.33
	c-0.23-0.07-0.47-0.13-0.7-0.2c-1.45,0.17-3.48,0.29-5.87,0.05c-5.05-0.51-8.62-2.34-10.48-3.31c-8.29-4.33-12.47-11.12-13.14-12.24
	c-1.28-2.14-5.08-9.05-4.53-18.51c0.3-5.28,1.85-9.39,3-11.87c-0.19,0.69-0.45,1.66-0.72,2.83c-0.18,0.79-0.64,2.8-0.88,4.59
	c-0.42,3.24-0.12,5.89,0.03,7.16c0.65,5.35,2.57,9.23,3.2,10.43c0.84,1.61,3.54,6.42,9,10.4c0.78,0.57,2.57,1.82,5.1,3
	c1.88,0.88,5.55,2.36,10.4,2.82c1.79,0.17,6.96,0.01,7.43-0.24c0.12-0.06,0.96-0.52,0.87-0.84c-0.07-0.24-0.79-0.28-1.07-0.29
	c-2.05-0.08-4.37-0.1-5.28-0.15c-0.82-0.04-1.44-0.16-2.69-0.39c-1.74-0.33-6.7-1.55-11.45-4.7c-8.89-5.89-12.04-15.23-12.18-15.65
	c-2.99-9.29-0.25-17.12,0.68-19.66C239.65,223.55,246.17,218.72,246.26,218.8z"/>
<linearGradient id="SVGID_1_" gradientUnits="userSpaceOnUse" x1="297.7975" y1="243.4791" x2="277.0272" y2="243.4791">
	<stop  offset="0" style="stop-color:#F8C44C"/>
	<stop  offset="0.1599" style="stop-color:#98A976"/>
	<stop  offset="0.5076" style="stop-color:#709A77"/>
</linearGradient>
<path class="st1" d="M286.86,219.29c-0.19,0.15,5.49,5.07,7.92,13.35c0.73,2.48,2.3,9.15-0.1,16.68
	c-3.99,12.55-15.84,17.52-17.66,18.24c1.49-0.07,6.13,0.3,7.14-0.05c0.58-0.2,0.92-0.45,2.45-1.71c1.83-1.52,2.75-2.28,3.08-2.59
	c3.87-3.67,6.07-9,6.07-9c2.2-5.32,2.08-9.9,2.01-11.98c-0.04-1.24-0.31-6.36-3.08-12.33C291.58,223.23,287.03,219.15,286.86,219.29
	z"/>
<linearGradient id="SVGID_2_" gradientUnits="userSpaceOnUse" x1="301.2548" y1="249.8161" x2="289.4022" y2="249.8161">
	<stop  offset="0" style="stop-color:#F8C44C"/>
	<stop  offset="0.1599" style="stop-color:#98A976"/>
	<stop  offset="0.5076" style="stop-color:#709A77"/>
</linearGradient>
<path class="st2" d="M297.82,231.81c-0.14,0.05,1.48,3.58,2.15,8.41c0.34,2.43,1.06,8.11-1.27,14.63
	c-2.45,6.84-6.98,10.98-9.29,12.82c0.84,0,1.51,0.02,1.96,0.05c1.16,0.06,1.72,0.24,2.35-0.09c0.4-0.21,0.62-0.52,0.75-0.69
	c4.15-5.8,5.46-10.22,5.46-10.22c0.3-1.02,0.49-1.82,0.58-2.26c0.42-1.97,0.56-3.57,0.64-4.69c0.39-5.01-0.33-8.83-0.54-9.88
	C299.68,235.27,297.96,231.76,297.82,231.81z"/>
<path class="st3" d="M198.65,272.67c0.14-0.26,3.71,2.17,9.72,3.65c3.61,0.89,6.91,1.14,8.89,1.3c1.53,0.12,3.52,0.24,6.16,0.2
	c1.1-0.02,3.64-0.17,5.8-0.29c1.39-0.07,2.45-0.69,3.48-0.1c0.36,0.21,0.41,0.36,1.58,1.65c1.36,1.5,1.61,1.65,1.55,1.87
	c-0.16,0.53-1.84,0.49-5.61,0.2c-3.89-0.3-6.77-0.61-7.11-0.65c-5.24-0.58-6.58-0.79-7.3-0.91c-1.88-0.31-3.25-0.55-5.09-1.04
	c-2.86-0.77-4.92-1.67-5.52-1.93C201.6,275.01,198.53,272.91,198.65,272.67z"/>
<path class="st3" d="M238.89,283.43c-4.12,0.41-10.24,0.71-17.54-0.2c-8.86-1.1-15.1-3.43-15.2-3.13c-0.1,0.32,7.13,3.52,16.11,5.28
	c8.42,1.65,15.65,1.49,20.67,1.04L238.89,283.43z"/>
<path class="st3" d="M238.7,291.45c-6.25-0.14-10.05-0.72-12.68-1.24c-3.45-0.68-5.76-1.45-6.68-1.76c-3.56-1.22-6.6-2.73-6.57-2.8
	c0.01-0.02,0.35,0.13,1.14,0.38c0.95,0.3,1.73,0.49,3.26,0.84c0.57,0.13,1.34,0.31,2.37,0.53c0.21,0.04,1.39,0.29,2.65,0.51
	c2.63,0.47,4.87,0.72,6.85,0.93c1.57,0.17,2.66,0.29,4.09,0.39c5.83,0.42,12.39,0.19,13.83-0.07c0.36-0.06,1.09-0.22,2.08-0.12
	c0.55,0.05,0.62,0.13,3.11,0.78c0.81,0.21,3,0.56,3,0.65C255.14,290.89,247.36,291.65,238.7,291.45z"/>
<linearGradient id="SVGID_3_" gradientUnits="userSpaceOnUse" x1="304.4429" y1="247.9784" x2="304.4429" y2="247.9784">
	<stop  offset="0" style="stop-color:#F8C44C"/>
	<stop  offset="0.1599" style="stop-color:#98A976"/>
	<stop  offset="0.5076" style="stop-color:#709A77"/>
</linearGradient>
<path class="st4" d="M304.44,247.98"/>
<linearGradient id="SVGID_4_" gradientUnits="userSpaceOnUse" x1="304.9252" y1="257.9279" x2="298.9251" y2="257.9279">
	<stop  offset="0" style="stop-color:#F8C44C"/>
	<stop  offset="0.1599" style="stop-color:#98A976"/>
	<stop  offset="0.5076" style="stop-color:#709A77"/>
</linearGradient>
<path class="st5" d="M298.96,267.8c-0.42-0.4,2.55-3.07,3.82-7.15c0.31-1,0.68-2.6,0.76-2.93c0.03-0.14,0.43-1.88,0.66-3.31
	c0.59-3.62,0.28-6.38,0.34-6.38c0.08,0,0.64,3.85,0.24,8.9c-0.57,7.31-2.68,10.91-3.62,10.87c-0.14-0.01-0.53-0.1-1.17-0.08
	C299.24,267.74,299.06,267.89,298.96,267.8z"/>
</svg>
