<?xml version="1.0" encoding="utf-8"?>
<!-- Generator: Adobe Illustrator 23.0.0, SVG Export Plug-In . SVG Version: 6.00 Build 0)  -->
<svg version="1.1" id="Capa_1" xmlns="http://www.w3.org/2000/svg" xmlns:xlink="http://www.w3.org/1999/xlink" x="0px" y="0px"
	 viewBox="0 0 360 360" style="enable-background:new 0 0 360 360;" xml:space="preserve">
<style type="text/css">
	.st0{fill:#4DA881;}
	.st1{fill:url(#SVGID_1_);}
	.st2{fill:url(#SVGID_2_);}
	.st3{fill:#F8C44C;}
	.st4{fill:url(#SVGID_3_);}
	.st5{fill:url(#SVGID_4_);}
</style>
<path class="st0" d="M137.91,78.13c0.23,0.19-13.28,11.17-20.27,31.08c-6.68,19.05-3.78,35.97-2.7,41.21
	c2.69,13.12,8.1,22.13,9.46,24.32c15.67,25.27,43.85,32.26,51.26,33.87c3.79,0.1,7.59,0.18,11.4,0.25
	c33.84,0.63,66.9,0.12,99.15-1.35c0.9-0.11,2.19-0.19,3.72,0c5.08,0.62,11.84,4.06,14.36,11.32c2.15,6.19,0.5,13.12-4.22,17.73
	c-0.36,0.08-0.94,0.16-1.52-0.08c-1.38-0.58-1.34-2.39-2.28-3.55c-0.37-0.45-1.6-1.69-5.95-1.27c-9.69,0.94-19.13,6.84-19.13,6.84
	c-4.69,2.84-11.14,7.35-17.86,14.19c-28.97,0-57.93,0-86.9,0c-0.53,0.01-1.3,0.02-2.24,0c-33.18-0.67-56.59-30.9-58.69-33.7
	c-22.49-29.9-16.34-64.56-15.2-70.43l0.25-0.97c-0.03,1.16-0.05,2.73,0,4.6c0,0.19,0.08,2.79,0.34,5.74
	c0.32,3.57,1.27,11.79,2.22,16.4c0,0,3.5,16.49,13.24,31.23c1.89,2.86,3.88,5.32,3.88,5.32c0.82,1.01,3.06,3.71,6.42,6.84
	c1.37,1.28,5.07,4.62,10.47,8.11c2.5,1.61,11.09,6.94,23.82,10.39c8.75,2.37,15.23,2.71,19.93,2.96c0,0,5.1,0.27,14.19-1.69
	c1.41-0.3,3.7-0.87,3.73-1.68c0.01-0.35-0.41-0.65-0.77-0.86c-0.61-0.17-1.21-0.34-1.82-0.51c-3.77,0.44-9.01,0.76-15.2,0.13
	c-13.07-1.33-22.33-6.06-27.15-8.57c-21.46-11.2-32.29-28.8-34.03-31.71c-3.31-5.53-13.15-23.43-11.74-47.93
	c0.79-13.67,4.79-24.32,7.77-30.74c-0.5,1.79-1.17,4.3-1.86,7.33c-0.47,2.05-1.67,7.25-2.27,11.88c-1.1,8.39-0.31,15.26,0.08,18.54
	c1.68,13.86,6.64,23.9,8.28,27.02c2.18,4.17,9.17,16.64,23.31,26.94c2.02,1.47,6.67,4.71,13.21,7.77
	c4.87,2.28,14.36,6.12,26.94,7.31c4.65,0.44,18.03,0.03,19.26-0.63c0.3-0.17,2.48-1.36,2.26-2.17c-0.17-0.62-2.05-0.71-2.76-0.74
	c-5.32-0.21-11.31-0.27-13.68-0.38c-2.12-0.1-3.74-0.41-6.97-1.01c-4.51-0.85-17.36-4.02-29.64-12.16
	c-23.03-15.26-31.19-39.44-31.54-40.54c-7.76-24.06-0.64-44.34,1.77-50.92C120.8,90.43,137.66,77.92,137.91,78.13z"/>
<linearGradient id="SVGID_1_" gradientUnits="userSpaceOnUse" x1="271.3816" y1="142.0397" x2="217.5893" y2="142.0397">
	<stop  offset="0" style="stop-color:#F8C44C"/>
	<stop  offset="0.1599" style="stop-color:#98A976"/>
	<stop  offset="0.5076" style="stop-color:#709A77"/>
</linearGradient>
<path class="st1" d="M243.05,79.4c-0.5,0.39,14.23,13.12,20.52,34.58c1.89,6.43,5.95,23.7-0.25,43.2
	c-10.35,32.51-41.02,45.36-45.73,47.25c3.85-0.17,15.88,0.77,18.49-0.13c1.51-0.52,2.38-1.16,6.33-4.43
	c4.75-3.93,7.13-5.9,7.98-6.71c10.01-9.52,15.71-23.31,15.71-23.31c5.69-13.78,5.39-25.64,5.19-31.04
	c-0.12-3.2-0.79-16.46-7.98-31.92C255.28,89.59,243.5,79.04,243.05,79.4z"/>
<linearGradient id="SVGID_2_" gradientUnits="userSpaceOnUse" x1="280.3353" y1="158.4515" x2="249.6387" y2="158.4515">
	<stop  offset="0" style="stop-color:#F8C44C"/>
	<stop  offset="0.1599" style="stop-color:#98A976"/>
	<stop  offset="0.5076" style="stop-color:#709A77"/>
</linearGradient>
<path class="st2" d="M271.43,111.83c-0.37,0.13,3.83,9.27,5.57,21.79c0.87,6.28,2.75,21.01-3.29,37.88
	c-6.35,17.72-18.07,28.43-24.07,33.19c2.16-0.01,3.91,0.06,5.07,0.13c3,0.16,4.47,0.63,6.08-0.23c1.03-0.55,1.61-1.34,1.94-1.8
	c10.75-15.01,14.15-26.48,14.15-26.48c0.78-2.63,1.26-4.72,1.5-5.85c1.1-5.11,1.44-9.24,1.66-12.14
	c1.01-12.97-0.85-22.87-1.39-25.59C276.25,120.77,271.8,111.7,271.43,111.83z"/>
<path class="st3" d="M14.61,217.64c0.35-0.66,9.62,5.63,25.17,9.46c9.34,2.3,17.88,2.96,23.01,3.36c3.97,0.31,9.12,0.62,15.96,0.51
	c2.84-0.05,9.44-0.45,15.01-0.75c3.6-0.19,6.35-1.77,9.02-0.25c0.94,0.54,1.06,0.94,4.1,4.29c3.52,3.89,4.18,4.26,4.01,4.83
	c-0.41,1.37-4.78,1.26-14.53,0.51c-10.08-0.78-17.53-1.59-18.41-1.69c-13.56-1.5-17.05-2.05-18.92-2.36
	c-4.87-0.81-8.41-1.41-13.17-2.7c-7.4-2.01-12.74-4.32-14.29-5.01C22.24,223.7,14.28,218.26,14.61,217.64z"/>
<path class="st3" d="M118.82,245.51c-10.68,1.07-26.52,1.84-45.44-0.51c-22.96-2.85-39.12-8.88-39.35-8.11
	c-0.26,0.84,18.46,9.13,41.72,13.68c21.82,4.27,40.54,3.87,53.54,2.7L118.82,245.51z"/>
<path class="st3" d="M118.32,266.29c-16.19-0.37-26.03-1.86-32.85-3.21c-8.92-1.77-14.93-3.74-17.31-4.56
	c-9.21-3.16-17.09-7.08-17.02-7.25c0.02-0.06,0.91,0.33,2.95,0.98c2.46,0.79,4.49,1.26,8.46,2.19c1.49,0.35,3.47,0.8,6.14,1.36
	c0.54,0.11,3.6,0.75,6.87,1.33c6.82,1.21,12.62,1.85,17.73,2.41c4.08,0.44,6.89,0.75,10.59,1.01c15.11,1.09,32.09,0.49,35.81-0.17
	c0.92-0.16,2.83-0.56,5.38-0.32c1.43,0.13,1.62,0.33,8.05,2.01c2.1,0.55,7.77,1.44,7.77,1.69
	C160.89,264.83,140.77,266.8,118.32,266.29z"/>
<linearGradient id="SVGID_3_" gradientUnits="userSpaceOnUse" x1="288.5922" y1="153.6921" x2="288.5922" y2="153.6921">
	<stop  offset="0" style="stop-color:#F8C44C"/>
	<stop  offset="0.1599" style="stop-color:#98A976"/>
	<stop  offset="0.5076" style="stop-color:#709A77"/>
</linearGradient>
<path class="st4" d="M288.59,153.69"/>
<linearGradient id="SVGID_4_" gradientUnits="userSpaceOnUse" x1="289.8412" y1="179.46" x2="274.3018" y2="179.46">
	<stop  offset="0" style="stop-color:#F8C44C"/>
	<stop  offset="0.1599" style="stop-color:#98A976"/>
	<stop  offset="0.5076" style="stop-color:#709A77"/>
</linearGradient>
<path class="st5" d="M274.4,205.02c-1.08-1.05,6.6-7.95,9.88-18.52c0.8-2.59,1.76-6.73,1.96-7.59c0.09-0.38,1.12-4.87,1.72-8.56
	c1.52-9.38,0.72-16.52,0.89-16.53c0.2-0.01,1.66,9.98,0.63,23.06c-1.49,18.94-6.93,28.26-9.37,28.15c-0.35-0.02-1.38-0.27-3.04-0.21
	C275.11,204.87,274.66,205.27,274.4,205.02z"/>
</svg>
